<?xml version="1.0" encoding="utf-8"?>
<!-- Generator: Adobe Illustrator 16.0.4, SVG Export Plug-In . SVG Version: 6.00 Build 0)  -->
<!DOCTYPE svg PUBLIC "-//W3C//DTD SVG 1.1//EN" "http://www.w3.org/Graphics/SVG/1.1/DTD/svg11.dtd">
<svg version="1.1" id="Layer_1" xmlns="http://www.w3.org/2000/svg" xmlns:xlink="http://www.w3.org/1999/xlink" x="0px" y="0px"
	 width="28px" height="31px" viewBox="0 0 28 31" enable-background="new 0 0 28 31" xml:space="preserve">
<path fill="#52FFAF" d="M23.537,6.879c-0.524-6.584-9.194-8.754-12.739-3.116c-2.299-1.3-5.23,0.229-5.413,2.917
	c-2.52,0.308-4.473,2.303-4.473,4.907c0,2.815,2.281,4.946,5.098,4.946h5.527l-3.955,8.939l7.367-2.074l-1.84,5.531L14,30.473
	l0.299-0.521L20.415,18.5l-6.618,1.777l1.599-3.744h6.593c2.815,0,5.098-2.131,5.098-4.946C27.087,9.31,25.596,7.535,23.537,6.879z"
	/>
</svg>
