<?xml version="1.0" encoding="utf-8"?>
<!-- Generator: Adobe Illustrator 16.0.4, SVG Export Plug-In . SVG Version: 6.00 Build 0)  -->
<!DOCTYPE svg PUBLIC "-//W3C//DTD SVG 1.1//EN" "http://www.w3.org/Graphics/SVG/1.1/DTD/svg11.dtd">
<svg version="1.1" id="Layer_1" xmlns="http://www.w3.org/2000/svg" xmlns:xlink="http://www.w3.org/1999/xlink" x="0px" y="0px"
	 width="24px" height="30px" viewBox="0 0 24 30" enable-background="new 0 0 24 30" xml:space="preserve">
<path fill="#52FFAF" d="M14.908,29c1.538-0.385,3.897-3.793,3.496-7.148c-0.452,1.23-2.533,2.404-3.085,2.215
	c1.054-1.579,2.24-5.117,0.85-7.257c-0.456,1.533-1.533,2.718-2.476,2.716c1.153-1.939,1.364-7.678-4.692-8.807
	c2.669,3.949-4.052,8.699,1.166,13.504c-1.424-0.014-2.851-1.197-3.577-2.543C5.325,24.962,7.78,28.123,8.963,29
	c-5.764-0.621-9.033-7.765-7.815-13.377c0.491,2.988,3.074,3.85,4.165,3.896C-1.644,11.104,9.853,7.508,7.245,1
	c4.363,0.438,9.395,5.019,7.983,9.983c1.333-0.363,2.583-1.695,2.861-3.705c2.809,3.913,2.573,8.578,1.256,11.587
	c1.251-0.011,3.147-1.706,3.552-3.428C24.279,23.689,18.452,29,14.908,29z"/>
</svg>
